<svg width="345" height="406" viewBox="0 0 345 406" fill="none" xmlns="http://www.w3.org/2000/svg">
<path d="M138.49 302.682L142.734 228.946L198.965 224.85L206.392 302.682C214.03 302.682 218.416 306.779 233.977 312.924C165.014 385.636 115.149 311.899 117.271 309.851C118.968 308.213 120.454 308.144 138.49 302.682Z" fill="#F3C5C5" stroke="black" stroke-width="2.12192"/>
<path d="M197.904 220.753C175.496 231.814 159.937 239.948 154.405 237.315L202.148 268.887L197.904 220.753Z" fill="#E77E7F"/>
<path d="M90.7472 155.21C88.2008 149.475 87.5643 113.904 87.5643 96.8354C91.8081 100.932 93.93 44.8239 101.357 42.7756C108.783 40.7274 145.917 46.1721 161.831 22.6175C174.563 3.77381 217.001 49.0434 229.733 50.7503C228.035 75.329 247.416 94.4458 257.318 100.932C256.964 111.514 256.791 137.846 253.396 155.871C250.001 173.895 244.233 183.202 242.464 185.933C176.261 282.61 120.808 226.215 101.357 185.933C98.8812 178.082 93.2935 160.945 90.7472 155.21Z" fill="#F6C4C5" stroke="black" stroke-width="2.12192"/>
<path d="M150.186 185.933C156.198 190.371 172.678 196.584 190.502 185.933" stroke="black" stroke-width="2.12192"/>
<path d="M66.3444 179.789C52.7641 159.306 68.4663 146.676 78.015 142.921C82.6125 146.288 92.0197 154.688 92.8684 161.355C93.6714 167.661 92.7304 168.188 92.0711 167.608C94.393 169.931 96.1307 172.638 97.1123 174.668C92.5148 184.909 79.9247 200.271 66.3444 179.789Z" fill="#F3C5C5"/>
<path d="M78.015 163.403C83.5915 161.445 88.4363 164.018 91.9615 167.499M91.9615 167.499C94.3383 169.846 96.1153 172.606 97.1123 174.668C92.5148 184.909 79.9247 200.271 66.3444 179.789C52.7641 159.306 68.4663 146.676 78.015 142.921C82.6125 146.288 92.0197 154.688 92.8684 161.355C93.7172 168.021 92.6175 168.229 91.9615 167.499Z" stroke="black" stroke-width="2.12192"/>
<path d="M278.543 179.903C292.126 159.357 276.421 146.687 266.87 142.921C262.272 146.298 252.863 154.725 252.014 161.412C251.211 167.738 252.152 168.266 252.811 167.685C250.489 170.015 248.751 172.73 247.769 174.766C252.368 185.039 264.96 200.448 278.543 179.903Z" fill="#F3C5C5"/>
<path d="M266.87 163.466C261.293 161.503 256.447 164.084 252.921 167.575M252.921 167.575C250.544 169.93 248.767 172.698 247.769 174.766C252.368 185.039 264.96 200.448 278.543 179.903C292.126 159.357 276.421 146.687 266.87 142.921C262.272 146.298 252.863 154.725 252.014 161.412C251.165 168.099 252.265 168.307 252.921 167.575Z" stroke="black" stroke-width="2.12192"/>
<ellipse cx="135.308" cy="144.969" rx="8.48768" ry="8.19291" fill="#3D3434"/>
<ellipse cx="207.453" cy="144.969" rx="8.48768" ry="8.19291" fill="#3D3434"/>
<path d="M170.37 150.089L166.655 168.019C166.382 169.336 167.387 170.572 168.732 170.572H175.674" stroke="black" stroke-width="2.12192"/>
<path d="M199.771 108.497C213.967 106.469 224.365 112.72 227.79 116.099C230.031 120.154 227.478 120.604 225.922 120.322C225.61 120.041 223.68 119.478 218.45 119.478C213.22 119.478 200.705 118.351 195.102 117.788C190.743 115.536 185.575 110.524 199.771 108.497Z" fill="#CDCCCC" stroke="black" stroke-width="2.12192"/>
<path d="M136.623 108.497C122.427 106.469 112.029 112.72 108.605 116.099C106.363 120.154 108.916 120.604 110.473 120.322C110.784 120.041 112.714 119.478 117.944 119.478C123.174 119.478 135.689 118.351 141.293 117.788C145.651 115.536 150.819 110.524 136.623 108.497Z" fill="#CDCCCC" stroke="black" stroke-width="2.12192"/>
<rect x="98.1741" y="341.636" width="133.681" height="61.3732" fill="#797171" stroke="black" stroke-width="2.12192"/>
<path d="M147.547 374.511L171.867 341.997L196.187 374.511L186.67 385.634L196.187 402.747H147.547L158.12 385.634L147.547 374.511Z" fill="black" stroke="black" stroke-width="2.12192"/>
<path d="M218.062 306.779C174.481 361.306 142.945 329.498 125.759 306.779L116.21 313.948L110.58 330.884C110.58 345.701 126.793 369.162 134.9 379.04L171.866 341.256L207.86 379.04C222.646 364.815 228.289 346.936 229.261 339.775V317.02L218.062 306.779Z" fill="#FFFCFC" stroke="black" stroke-width="2.12192"/>
<path d="M89.0632 321.341C32.6163 346.656 8.39146 388.693 1.62593 404.07H141.673C109.198 351.437 117.993 316.342 126.45 305.755C123.374 307.629 126.694 304.464 89.0632 321.341Z" fill="#C4C4C4" stroke="black" stroke-width="2.12192"/>
<path d="M255.818 321.341C312.265 346.656 336.49 388.693 343.255 404.07H203.208C235.683 351.437 226.888 316.342 218.431 305.755C221.507 307.629 218.187 304.464 255.818 321.341Z" fill="#C4C4C4" stroke="black" stroke-width="2.12192"/>
<path d="M137.429 404.07H205.331" stroke="black" stroke-width="2.12192"/>
<path d="M126.333 48.4546C84.7431 73.0689 84.426 108.598 90.4381 134.415L87.1789 149.081C85.4106 144.483 85.5919 146.487 83.8943 139.697C81.7724 131.21 61.6141 104.686 69.0409 62.2472C74.9822 28.2965 111.479 20.1624 128.455 15.5649C233.49 -34.3002 276.989 56.9423 273.806 100.442C272.875 113.173 262.56 129.512 260.014 135.453C257.467 141.395 256.086 146.246 255.025 152.612L255.77 140.661C256.124 139.247 253.09 139.711 253.939 136.316C255 132.072 256.831 111.051 255.77 105.746C254.709 100.442 243.038 84.5273 197.417 80.2834C160.92 76.8884 134.82 57.6496 126.333 48.4546Z" fill="#CDCCCC" stroke="black" stroke-width="2.12192"/>
<rect x="89.1673" y="129.954" width="71.1113" height="30.7948" rx="11.1535" stroke="#3D3434" stroke-width="3.15595"/>
<rect x="183.567" y="129.954" width="71.1113" height="30.7948" rx="11.1535" stroke="#3D3434" stroke-width="3.15595"/>
<path d="M159.191 145.352C163.345 142.876 174.144 139.41 184.113 145.352" stroke="#3D3434" stroke-width="3.15595"/>
</svg>
