<svg width="20" height="20" viewBox="0 0 20 20" fill="none" xmlns="http://www.w3.org/2000/svg">
<path fill-rule="evenodd" clip-rule="evenodd" d="M0 5C0 2.23858 2.23858 0 5 0H15C17.7614 0 20 2.23858 20 5V15C20 17.7614 17.7614 20 15 20H5C2.23858 20 0 17.7614 0 15V5ZM5 2C3.34315 2 2 3.34315 2 5V15C2 16.6569 3.34315 18 5 18H15C16.6569 18 18 16.6569 18 15V5C18 3.34315 16.6569 2 15 2H5ZM10.7071 6.29289C11.0976 6.68342 11.0976 7.31658 10.7071 7.70711L9.41421 9H13C13.5523 9 14 9.44771 14 10C14 10.5523 13.5523 11 13 11H9.41421L10.7071 12.2929C11.0976 12.6834 11.0976 13.3166 10.7071 13.7071C10.3166 14.0976 9.68342 14.0976 9.29289 13.7071L6.29289 10.7071C5.90237 10.3166 5.90237 9.68342 6.29289 9.29289L9.29289 6.29289C9.68342 5.90237 10.3166 5.90237 10.7071 6.29289Z" fill="black" data-index="0" style="opacity: 1; visibility: visible; fill: rgb(3, 3, 3);"></path>
</svg>