<svg width="24" height="24" viewBox="0 0 24 24" fill="none" xmlns="http://www.w3.org/2000/svg">
<path fill-rule="evenodd" clip-rule="evenodd" d="M22 12C22 17.5228 17.5228 22 12 22C6.47715 22 2 17.5228 2 12C2 6.47715 6.47715 2 12 2C17.5228 2 22 6.47715 22 12ZM13.75 8.20706C13.75 6.8707 12.1343 6.20145 11.1893 7.1464L9.54289 8.79284C9.15237 9.18337 9.15237 9.81653 9.54289 10.2071C9.93342 10.5976 10.5666 10.5976 10.9571 10.2071L11.75 9.41416V17C11.75 17.5522 12.1977 18 12.75 18C13.3023 18 13.75 17.5522 13.75 17V8.20706Z" fill="black"/>
</svg>
