<svg width="24" height="24" viewBox="0 0 24 24" fill="none" xmlns="http://www.w3.org/2000/svg">
<path fill-rule="evenodd" clip-rule="evenodd" d="M22 12C22 17.5228 17.5228 22 12 22C6.47715 22 2 17.5228 2 12C2 6.47715 6.47715 2 12 2C17.5228 2 22 6.47715 22 12ZM10.2576 9.14679C10.4287 8.54087 11.0766 8 11.952 8C13.0041 8 13.6952 8.75692 13.6952 9.5C13.6952 10.2431 13.0041 11 11.952 11C11.3997 11 10.952 11.4477 10.952 12C10.952 12.5523 11.3997 13 11.952 13C13.2776 13 14 13.8478 14 14.5C14 15.1522 13.2776 16 11.952 16C10.8639 16 10.1328 15.3949 9.95413 14.8256C9.78877 14.2986 9.22754 14.0055 8.70059 14.1709C8.17364 14.3362 7.88052 14.8975 8.04587 15.4244C8.54393 17.0116 10.1996 18 11.952 18C13.9932 18 16 16.6092 16 14.5C16 13.414 15.468 12.5185 14.6732 11.9052C15.2997 11.2905 15.6952 10.4554 15.6952 9.5C15.6952 7.48166 13.9299 6 11.952 6C10.2709 6 8.77077 7.05259 8.33284 8.60321C8.18274 9.1347 8.49191 9.68725 9.02341 9.83736C9.5549 9.98746 10.1074 9.67829 10.2576 9.14679Z" fill="black"/>
</svg>
