<svg width="24" height="24" viewBox="0 0 24 24" fill="none" xmlns="http://www.w3.org/2000/svg">
<path fill-rule="evenodd" clip-rule="evenodd" d="M22 12C22 17.5228 17.5228 22 12 22C6.47715 22 2 17.5228 2 12C2 6.47715 6.47715 2 12 2C17.5228 2 22 6.47715 22 12ZM10.0267 9.95446C9.85605 8.96827 10.5734 8 12.0158 8C13.2198 8 14.0802 9.04159 13.994 10.0388C13.9481 10.5692 13.7168 10.9236 13.3051 11.2577C12.9052 11.5822 12.4053 11.8355 11.7778 12.1534C11.6719 12.2071 11.5619 12.2628 11.4486 12.3208C10.7237 12.6918 9.86071 13.1606 9.19306 13.8865C8.48715 14.6539 8.04138 15.6579 8.04139 17C8.04139 17.5523 8.48911 18 9.04139 18H14.9902C15.5425 18 15.9902 17.5523 15.9902 17C15.9902 16.4477 15.5425 16 14.9902 16H10.1988C10.3101 15.6922 10.4733 15.4489 10.6651 15.2405C11.0663 14.8042 11.6348 14.4723 12.3599 14.1011C12.4528 14.0536 12.5496 14.0048 12.6492 13.9546C13.2628 13.6456 13.9839 13.2825 14.5653 12.8107C15.2969 12.217 15.8837 11.3996 15.9865 10.2112C16.1749 8.03461 14.3812 6 12.0158 6C9.59141 6 7.63177 7.84423 8.05604 10.2955C8.15023 10.8397 8.66774 11.2045 9.21193 11.1103C9.75613 11.0162 10.1209 10.4986 10.0267 9.95446Z" fill="black"/>
</svg>
